<?xml version="1.0" standalone="no"?><!DOCTYPE svg PUBLIC "-//W3C//DTD SVG 1.1//EN" "http://www.w3.org/Graphics/SVG/1.1/DTD/svg11.dtd"><svg t="1532403581179" class="icon" style="" viewBox="0 0 1024 1024" version="1.1" xmlns="http://www.w3.org/2000/svg" p-id="3083" xmlns:xlink="http://www.w3.org/1999/xlink" width="64" height="64"><defs><style type="text/css"></style></defs><path d="M984.2 789.77H283.94a27.73 27.73 0 0 1-27.59-24.71l-73.59-662.2a83.59 83.59 0 0 0-62.61-71.62L46.53 12.83A27.77 27.77 0 0 0 33 66.7l73.65 18.45A27.81 27.81 0 0 1 127.53 109l73.59 662.2a83.23 83.23 0 0 0 82.82 74.14H984.2a27.78 27.78 0 0 0 0-55.56z" p-id="3084" fill="#2c2c2c"></path><path d="M331.44 956.44m-55.55 0a55.55 55.55 0 1 0 111.1 0 55.55 55.55 0 1 0-111.1 0Z" p-id="3085" fill="#2c2c2c"></path><path d="M886.98 956.44m-55.55 0a55.55 55.55 0 1 0 111.1 0 55.55 55.55 0 1 0-111.1 0Z" p-id="3086" fill="#2c2c2c"></path><path d="M289.77 234.21l666.65-0.08-94 372a28.34 28.34 0 0 1-24.85 21l-495.1 51.68a27.77 27.77 0 0 0 2.85 55.39 26.39 26.39 0 0 0 2.9-0.16l495-51.65a84 84 0 0 0 73.1-62.64l94-372a55 55 0 0 0-10-47.55 55.55 55.55 0 0 0-44.16-21.54H289.77a27.78 27.78 0 0 0 0 55.56z" p-id="3087" fill="#2c2c2c"></path></svg>