<?xml version="1.0" standalone="no"?><!DOCTYPE svg PUBLIC "-//W3C//DTD SVG 1.1//EN" "http://www.w3.org/Graphics/SVG/1.1/DTD/svg11.dtd"><svg t="1532403556082" class="icon" style="" viewBox="0 0 1024 1024" version="1.1" xmlns="http://www.w3.org/2000/svg" p-id="2906" xmlns:xlink="http://www.w3.org/1999/xlink" width="64" height="64"><defs><style type="text/css"></style></defs><path d="M373.11 12h-250A111.23 111.23 0 0 0 12 123.11v166.67a111.23 111.23 0 0 0 111.11 111.11h250a111.23 111.23 0 0 0 111.11-111.11V123.11A111.23 111.23 0 0 0 373.11 12z m55.56 277.78a55.62 55.62 0 0 1-55.56 55.56h-250a55.62 55.62 0 0 1-55.56-55.56V123.11a55.62 55.62 0 0 1 55.56-55.56h250a55.62 55.62 0 0 1 55.56 55.56zM373.11 456.44h-250A111.23 111.23 0 0 0 12 567.56v333.33A111.22 111.22 0 0 0 123.11 1012h250a111.22 111.22 0 0 0 111.11-111.11V567.56a111.23 111.23 0 0 0-111.11-111.12z m55.56 444.44a55.63 55.63 0 0 1-55.56 55.56h-250a55.63 55.63 0 0 1-55.56-55.56V567.56A55.62 55.62 0 0 1 123.11 512h250a55.62 55.62 0 0 1 55.56 55.56zM900.89 623.11h-250a111.23 111.23 0 0 0-111.11 111.11v166.67A111.22 111.22 0 0 0 650.89 1012h250A111.22 111.22 0 0 0 1012 900.89V734.22a111.23 111.23 0 0 0-111.11-111.11z m55.56 277.78a55.63 55.63 0 0 1-55.56 55.56h-250a55.63 55.63 0 0 1-55.56-55.56V734.22a55.62 55.62 0 0 1 55.56-55.56h250a55.62 55.62 0 0 1 55.56 55.56zM900.89 12h-250a111.23 111.23 0 0 0-111.11 111.11v333.33a111.23 111.23 0 0 0 111.11 111.12h250A111.23 111.23 0 0 0 1012 456.44V123.11A111.23 111.23 0 0 0 900.89 12z m55.56 444.44A55.62 55.62 0 0 1 900.89 512h-250a55.62 55.62 0 0 1-55.56-55.56V123.11a55.62 55.62 0 0 1 55.56-55.56h250a55.62 55.62 0 0 1 55.56 55.56z" p-id="2907" fill="#2c2c2c"></path></svg>